<svg width="44" height="42" viewBox="0 0 44 42" fill="none" xmlns="http://www.w3.org/2000/svg">
<path d="M14.8825 33.8183C14.8825 33.992 14.6831 34.131 14.4317 34.131C14.1456 34.157 13.9462 34.0181 13.9462 33.8183C13.9462 33.6446 14.1456 33.5057 14.397 33.5057C14.6571 33.4796 14.8825 33.6186 14.8825 33.8183ZM12.1863 33.4275C12.1256 33.6012 12.299 33.801 12.5591 33.8531C12.7845 33.9399 13.0446 33.8531 13.0966 33.6794C13.1486 33.5057 12.9839 33.3059 12.7238 33.2278C12.4984 33.167 12.247 33.2538 12.1863 33.4275ZM16.0181 33.2799C15.7667 33.3407 15.5933 33.5057 15.6194 33.7054C15.6454 33.8791 15.8708 33.992 16.1308 33.9312C16.3823 33.8704 16.5556 33.7054 16.5296 33.5317C16.5036 33.3667 16.2696 33.2538 16.0181 33.2799ZM21.7226 0C9.69819 0 0.5 9.14502 0.5 21.1907C0.5 30.8221 6.55121 39.0639 15.1946 41.9646C16.3042 42.1644 16.6944 41.4783 16.6944 40.9138C16.6944 40.3753 16.6683 37.4051 16.6683 35.5813C16.6683 35.5813 10.5998 36.884 9.3254 32.9933C9.3254 32.9933 8.3371 30.466 6.91532 29.8147C6.91532 29.8147 4.93004 28.4512 7.05403 28.4772C7.05403 28.4772 9.2127 28.6509 10.4004 30.7179C12.299 34.0702 15.4806 33.1062 16.7204 32.533C16.9198 31.1434 17.4833 30.1794 18.1075 29.6062C13.2613 29.0678 8.37177 28.3643 8.37177 20.0096C8.37177 17.6213 9.03065 16.4228 10.4177 14.8943C10.1923 14.3298 9.45544 12.0023 10.6431 8.99738C12.455 8.43287 16.625 11.3423 16.625 11.3423C18.3589 10.8559 20.2228 10.6041 22.0694 10.6041C23.9159 10.6041 25.7798 10.8559 27.5137 11.3423C27.5137 11.3423 31.6837 8.42419 33.4956 8.99738C34.6833 12.011 33.9464 14.3298 33.721 14.8943C35.1081 16.4315 35.9577 17.63 35.9577 20.0096C35.9577 28.3904 30.8514 29.0591 26.0052 29.6062C26.8028 30.2923 27.479 31.595 27.479 33.636C27.479 36.5627 27.453 40.1842 27.453 40.8964C27.453 41.4609 27.8518 42.147 28.9528 41.9472C37.6222 39.0639 43.5 30.8221 43.5 21.1907C43.5 9.14502 33.747 0 21.7226 0ZM8.92661 29.9536C8.81391 30.0405 8.83992 30.2402 8.9873 30.4052C9.12601 30.5442 9.3254 30.605 9.4381 30.4921C9.55081 30.4052 9.5248 30.2055 9.37742 30.0405C9.23871 29.9015 9.03931 29.8407 8.92661 29.9536ZM7.99032 29.2502C7.92964 29.3631 8.01633 29.502 8.18972 29.5889C8.32843 29.6757 8.50181 29.6497 8.5625 29.5281C8.62319 29.4152 8.53649 29.2762 8.3631 29.1894C8.18972 29.1373 8.05101 29.1633 7.99032 29.2502ZM10.7992 32.3419C10.6605 32.4548 10.7125 32.7154 10.9119 32.8804C11.1113 33.0801 11.3627 33.1062 11.4754 32.9672C11.5881 32.8543 11.5361 32.5938 11.3627 32.4288C11.172 32.229 10.9119 32.203 10.7992 32.3419ZM9.81089 31.0653C9.67218 31.1521 9.67218 31.3779 9.81089 31.5777C9.9496 31.7774 10.1837 31.8643 10.2964 31.7774C10.4351 31.6645 10.4351 31.4387 10.2964 31.239C10.175 31.0392 9.9496 30.9524 9.81089 31.0653Z" fill="white"/>
</svg>
