<svg width="36" height="30" viewBox="0 0 36 30" fill="none" xmlns="http://www.w3.org/2000/svg">
<path d="M21.393 1.10765C21.567 1.27716 22.311 1.91719 22.923 2.5134C26.772 6.00877 33.072 15.1271 34.995 19.8997C35.304 20.6245 35.958 22.4569 36 23.4359C36 24.3741 35.784 25.2684 35.346 26.1218C34.734 27.1856 33.771 28.039 32.634 28.5066C31.845 28.8076 29.484 29.2752 29.442 29.2752C26.859 29.7428 22.662 30 18.024 30C13.605 30 9.579 29.7428 6.957 29.36C6.915 29.3161 3.981 28.8485 2.976 28.3371C1.14 27.3989 0 25.5665 0 23.6055V23.4359C0.045 22.1588 1.185 19.473 1.227 19.473C3.153 14.9576 9.144 6.04968 13.125 2.46956C13.125 2.46956 14.148 1.46128 14.787 1.02289C15.705 0.339016 16.842 0 17.979 0C19.248 0 20.43 0.382854 21.393 1.10765Z" fill="#33329D"/>
</svg>
